<svg data-v-728576c6="" width="134" height="47" viewBox="0 0 134 47" fill="none" xmlns="http://www.w3.org/2000/svg" class="inline-block"><path d="M35.3876 32.875C34.3501 34.425 33.2501 35.9375 31.5751 35.9625C29.9001 36 29.3626 34.975 27.4626 34.975C25.5501 34.975 24.9626 35.9375 23.3751 36C21.7376 36.0625 20.5001 34.35 19.4501 32.8375C17.3126 29.75 15.6751 24.0625 17.8751 20.2375C18.9626 18.3375 20.9126 17.1375 23.0251 17.1C24.6251 17.075 26.1501 18.1875 27.1376 18.1875C28.1126 18.1875 29.9626 16.85 31.9001 17.05C32.7126 17.0875 34.9876 17.375 36.4501 19.525C36.3376 19.6 33.7376 21.125 33.7626 24.2875C33.8001 28.0625 37.0751 29.325 37.1126 29.3375C37.0751 29.425 36.5876 31.1375 35.3876 32.875ZM28.2501 12.875C29.1626 11.8375 30.6751 11.05 31.9251 11C32.0876 12.4625 31.5001 13.9375 30.6251 14.9875C29.7626 16.05 28.3376 16.875 26.9376 16.7625C26.7501 15.325 27.4501 13.825 28.2501 12.875Z" fill="currentColor"></path> <path d="M47.056 16C46.9387 16 46.848 15.9707 46.784 15.912C46.7253 15.848 46.696 15.7573 46.696 15.64V10.72C46.696 10.6027 46.7253 10.5147 46.784 10.456C46.848 10.392 46.9387 10.36 47.056 10.36H48.6C49.512 10.36 50.216 10.6 50.712 11.08C51.208 11.56 51.456 12.2587 51.456 13.176C51.456 13.6347 51.392 14.04 51.264 14.392C51.1413 14.7387 50.9573 15.032 50.712 15.272C50.4667 15.512 50.168 15.6933 49.816 15.816C49.464 15.9387 49.0587 16 48.6 16H47.056ZM47.352 15.44H48.552C48.9253 15.44 49.248 15.392 49.52 15.296C49.7973 15.2 50.0267 15.0587 50.208 14.872C50.3947 14.6853 50.5333 14.4507 50.624 14.168C50.7147 13.88 50.76 13.5493 50.76 13.176C50.76 12.424 50.576 11.8613 50.208 11.488C49.84 11.1093 49.288 10.92 48.552 10.92H47.352V15.44ZM54.1615 16.072C53.7828 16.072 53.4548 15.9893 53.1775 15.824C52.9002 15.6587 52.6842 15.4267 52.5295 15.128C52.3802 14.824 52.3055 14.4667 52.3055 14.056C52.3055 13.7467 52.3482 13.4693 52.4335 13.224C52.5188 12.9733 52.6442 12.76 52.8095 12.584C52.9748 12.408 53.1695 12.2747 53.3935 12.184C53.6228 12.088 53.8788 12.04 54.1615 12.04C54.5402 12.04 54.8682 12.1227 55.1455 12.288C55.4228 12.4533 55.6362 12.688 55.7855 12.992C55.9402 13.2907 56.0175 13.6453 56.0175 14.056C56.0175 14.3653 55.9748 14.6427 55.8895 14.888C55.8042 15.1333 55.6788 15.3467 55.5135 15.528C55.3482 15.704 55.1508 15.84 54.9215 15.936C54.6975 16.0267 54.4442 16.072 54.1615 16.072ZM54.1615 15.552C54.4015 15.552 54.6122 15.4933 54.7935 15.376C54.9748 15.2587 55.1135 15.088 55.2095 14.864C55.3108 14.64 55.3615 14.3707 55.3615 14.056C55.3615 13.5707 55.2522 13.2 55.0335 12.944C54.8202 12.688 54.5295 12.56 54.1615 12.56C53.9162 12.56 53.7028 12.6187 53.5215 12.736C53.3455 12.848 53.2068 13.016 53.1055 13.24C53.0095 13.4587 52.9615 13.7307 52.9615 14.056C52.9615 14.536 53.0708 14.9067 53.2895 15.168C53.5082 15.424 53.7988 15.552 54.1615 15.552ZM58.2801 16.056C58.1895 16.056 58.1095 16.032 58.0401 15.984C57.9708 15.936 57.9148 15.8587 57.8721 15.752L56.6801 12.512C56.6481 12.4213 56.6375 12.3413 56.6481 12.272C56.6641 12.2027 56.6988 12.1493 56.7521 12.112C56.8055 12.0747 56.8721 12.056 56.9521 12.056C57.0321 12.056 57.0961 12.0747 57.1441 12.112C57.1975 12.1493 57.2401 12.2187 57.2721 12.32L58.3921 15.52H58.2001L59.3521 12.32C59.3895 12.224 59.4348 12.1573 59.4881 12.12C59.5468 12.0773 59.6215 12.056 59.7121 12.056C59.7975 12.056 59.8695 12.0773 59.9281 12.12C59.9868 12.1627 60.0321 12.2293 60.0641 12.32L61.1921 15.52H61.0081L62.1441 12.304C62.1815 12.208 62.2268 12.144 62.2801 12.112C62.3335 12.0747 62.3975 12.056 62.4721 12.056C62.5575 12.056 62.6215 12.0773 62.6641 12.12C62.7121 12.1627 62.7388 12.2187 62.7441 12.288C62.7495 12.3573 62.7361 12.432 62.7041 12.512L61.5121 15.752C61.4748 15.8533 61.4188 15.9307 61.3441 15.984C61.2748 16.032 61.1948 16.056 61.1041 16.056C61.0135 16.056 60.9335 16.032 60.8641 15.984C60.7948 15.9307 60.7415 15.8533 60.7041 15.752L59.5201 12.504H59.8641L58.6881 15.752C58.6508 15.8533 58.5975 15.9307 58.5281 15.984C58.4588 16.032 58.3761 16.056 58.2801 16.056ZM63.9827 16.056C63.876 16.056 63.796 16.0267 63.7427 15.968C63.6894 15.9093 63.6627 15.8267 63.6627 15.72V12.384C63.6627 12.2773 63.6894 12.1973 63.7427 12.144C63.796 12.0853 63.8734 12.056 63.9747 12.056C64.076 12.056 64.1534 12.0853 64.2067 12.144C64.2654 12.1973 64.2947 12.2773 64.2947 12.384V13.072L64.2067 12.976C64.3187 12.6667 64.5 12.4347 64.7507 12.28C65.0067 12.12 65.3 12.04 65.6307 12.04C65.94 12.04 66.196 12.096 66.3987 12.208C66.6067 12.32 66.7614 12.4907 66.8627 12.72C66.964 12.944 67.0147 13.2293 67.0147 13.576V15.72C67.0147 15.8267 66.9854 15.9093 66.9267 15.968C66.8734 16.0267 66.796 16.056 66.6947 16.056C66.588 16.056 66.5054 16.0267 66.4467 15.968C66.3934 15.9093 66.3667 15.8267 66.3667 15.72V13.616C66.3667 13.2533 66.2947 12.9893 66.1507 12.824C66.012 12.6533 65.788 12.568 65.4787 12.568C65.1214 12.568 64.836 12.68 64.6227 12.904C64.4147 13.1227 64.3107 13.416 64.3107 13.784V15.72C64.3107 15.944 64.2014 16.056 63.9827 16.056ZM69.3936 16.072C69.0096 16.072 68.7162 15.9547 68.5136 15.72C68.3109 15.4853 68.2096 15.1493 68.2096 14.712V10.632C68.2096 10.5253 68.2362 10.4453 68.2896 10.392C68.3429 10.3333 68.4229 10.304 68.5296 10.304C68.6309 10.304 68.7109 10.3333 68.7696 10.392C68.8282 10.4453 68.8576 10.5253 68.8576 10.632V14.664C68.8576 14.952 68.9136 15.168 69.0256 15.312C69.1429 15.4507 69.3136 15.52 69.5376 15.52C69.5856 15.52 69.6282 15.5173 69.6656 15.512C69.7029 15.5067 69.7402 15.504 69.7776 15.504C69.8362 15.4987 69.8762 15.512 69.8976 15.544C69.9242 15.576 69.9376 15.64 69.9376 15.736C69.9376 15.832 69.9162 15.904 69.8736 15.952C69.8309 16 69.7616 16.032 69.6656 16.048C69.6229 16.0533 69.5776 16.0587 69.5296 16.064C69.4816 16.0693 69.4362 16.072 69.3936 16.072ZM72.1537 16.072C71.775 16.072 71.447 15.9893 71.1697 15.824C70.8924 15.6587 70.6764 15.4267 70.5217 15.128C70.3724 14.824 70.2977 14.4667 70.2977 14.056C70.2977 13.7467 70.3404 13.4693 70.4257 13.224C70.511 12.9733 70.6364 12.76 70.8017 12.584C70.967 12.408 71.1617 12.2747 71.3857 12.184C71.615 12.088 71.871 12.04 72.1537 12.04C72.5324 12.04 72.8604 12.1227 73.1377 12.288C73.415 12.4533 73.6284 12.688 73.7777 12.992C73.9324 13.2907 74.0097 13.6453 74.0097 14.056C74.0097 14.3653 73.967 14.6427 73.8817 14.888C73.7964 15.1333 73.671 15.3467 73.5057 15.528C73.3404 15.704 73.143 15.84 72.9137 15.936C72.6897 16.0267 72.4364 16.072 72.1537 16.072ZM72.1537 15.552C72.3937 15.552 72.6044 15.4933 72.7857 15.376C72.967 15.2587 73.1057 15.088 73.2017 14.864C73.303 14.64 73.3537 14.3707 73.3537 14.056C73.3537 13.5707 73.2444 13.2 73.0257 12.944C72.8124 12.688 72.5217 12.56 72.1537 12.56C71.9084 12.56 71.695 12.6187 71.5137 12.736C71.3377 12.848 71.199 13.016 71.0977 13.24C71.0017 13.4587 70.9537 13.7307 70.9537 14.056C70.9537 14.536 71.063 14.9067 71.2817 15.168C71.5004 15.424 71.791 15.552 72.1537 15.552ZM76.207 16.072C75.9403 16.072 75.7003 16.0213 75.487 15.92C75.279 15.8133 75.1137 15.6693 74.991 15.488C74.8683 15.3067 74.807 15.104 74.807 14.88C74.807 14.592 74.879 14.3653 75.023 14.2C75.1723 14.0347 75.415 13.9173 75.751 13.848C76.0923 13.7787 76.5563 13.744 77.143 13.744H77.503V14.168H77.151C76.719 14.168 76.3777 14.1893 76.127 14.232C75.8817 14.2693 75.7083 14.336 75.607 14.432C75.511 14.528 75.463 14.664 75.463 14.84C75.463 15.0587 75.5377 15.2373 75.687 15.376C75.8417 15.5147 76.0497 15.584 76.311 15.584C76.5243 15.584 76.711 15.5333 76.871 15.432C77.0363 15.3307 77.1643 15.192 77.255 15.016C77.351 14.84 77.399 14.6373 77.399 14.408V13.496C77.399 13.1653 77.3323 12.928 77.199 12.784C77.0657 12.6347 76.847 12.56 76.543 12.56C76.3563 12.56 76.1697 12.584 75.983 12.632C75.7963 12.68 75.599 12.7573 75.391 12.864C75.3163 12.9013 75.2523 12.9147 75.199 12.904C75.1457 12.888 75.103 12.8587 75.071 12.816C75.039 12.7733 75.0203 12.7253 75.015 12.672C75.0097 12.6133 75.0203 12.5573 75.047 12.504C75.079 12.4507 75.127 12.408 75.191 12.376C75.4257 12.2587 75.6577 12.1733 75.887 12.12C76.1163 12.0667 76.335 12.04 76.543 12.04C76.879 12.04 77.1563 12.096 77.375 12.208C77.5937 12.3147 77.7563 12.48 77.863 12.704C77.9697 12.9227 78.023 13.2053 78.023 13.552V15.72C78.023 15.8267 77.9963 15.9093 77.943 15.968C77.895 16.0267 77.823 16.056 77.727 16.056C77.6257 16.056 77.5483 16.0267 77.495 15.968C77.4417 15.9093 77.415 15.8267 77.415 15.72V15.096H77.487C77.4443 15.2987 77.3617 15.472 77.239 15.616C77.1217 15.76 76.975 15.872 76.799 15.952C76.623 16.032 76.4257 16.072 76.207 16.072ZM80.7052 16.072C80.3585 16.072 80.0545 15.9893 79.7932 15.824C79.5372 15.6587 79.3372 15.4267 79.1932 15.128C79.0545 14.824 78.9852 14.4667 78.9852 14.056C78.9852 13.64 79.0545 13.2827 79.1932 12.984C79.3372 12.68 79.5372 12.448 79.7932 12.288C80.0545 12.1227 80.3585 12.04 80.7052 12.04C81.0572 12.04 81.3585 12.128 81.6092 12.304C81.8599 12.48 82.0279 12.7173 82.1132 13.016H82.0252V10.632C82.0252 10.5253 82.0519 10.4453 82.1052 10.392C82.1639 10.3333 82.2465 10.304 82.3532 10.304C82.4545 10.304 82.5319 10.3333 82.5852 10.392C82.6439 10.4453 82.6732 10.5253 82.6732 10.632V15.72C82.6732 15.8267 82.6465 15.9093 82.5932 15.968C82.5399 16.0267 82.4599 16.056 82.3532 16.056C82.2519 16.056 82.1719 16.0267 82.1132 15.968C82.0599 15.9093 82.0332 15.8267 82.0332 15.72V14.96L82.1212 15.072C82.0359 15.376 81.8652 15.6187 81.6092 15.8C81.3585 15.9813 81.0572 16.072 80.7052 16.072ZM80.8412 15.552C81.0812 15.552 81.2919 15.4933 81.4732 15.376C81.6545 15.2587 81.7932 15.088 81.8892 14.864C81.9905 14.64 82.0412 14.3707 82.0412 14.056C82.0412 13.5707 81.9319 13.2 81.7132 12.944C81.4999 12.688 81.2092 12.56 80.8412 12.56C80.5959 12.56 80.3825 12.6187 80.2012 12.736C80.0252 12.848 79.8865 13.016 79.7852 13.24C79.6892 13.4587 79.6412 13.7307 79.6412 14.056C79.6412 14.536 79.7505 14.9067 79.9692 15.168C80.1879 15.424 80.4785 15.552 80.8412 15.552ZM87.5678 16.072C87.1891 16.072 86.8611 15.9893 86.5838 15.824C86.3064 15.6587 86.0904 15.4267 85.9358 15.128C85.7864 14.824 85.7118 14.4667 85.7118 14.056C85.7118 13.7467 85.7544 13.4693 85.8398 13.224C85.9251 12.9733 86.0504 12.76 86.2158 12.584C86.3811 12.408 86.5758 12.2747 86.7998 12.184C87.0291 12.088 87.2851 12.04 87.5678 12.04C87.9464 12.04 88.2744 12.1227 88.5518 12.288C88.8291 12.4533 89.0424 12.688 89.1918 12.992C89.3464 13.2907 89.4238 13.6453 89.4238 14.056C89.4238 14.3653 89.3811 14.6427 89.2958 14.888C89.2104 15.1333 89.0851 15.3467 88.9198 15.528C88.7544 15.704 88.5571 15.84 88.3278 15.936C88.1038 16.0267 87.8504 16.072 87.5678 16.072ZM87.5678 15.552C87.8078 15.552 88.0184 15.4933 88.1998 15.376C88.3811 15.2587 88.5198 15.088 88.6158 14.864C88.7171 14.64 88.7678 14.3707 88.7678 14.056C88.7678 13.5707 88.6584 13.2 88.4398 12.944C88.2264 12.688 87.9358 12.56 87.5678 12.56C87.3224 12.56 87.1091 12.6187 86.9278 12.736C86.7518 12.848 86.6131 13.016 86.5118 13.24C86.4158 13.4587 86.3678 13.7307 86.3678 14.056C86.3678 14.536 86.4771 14.9067 86.6958 15.168C86.9144 15.424 87.2051 15.552 87.5678 15.552ZM90.7171 16.056C90.6104 16.056 90.5304 16.0267 90.4771 15.968C90.4237 15.9093 90.3971 15.8267 90.3971 15.72V12.384C90.3971 12.2773 90.4237 12.1973 90.4771 12.144C90.5304 12.0853 90.6077 12.056 90.7091 12.056C90.8104 12.056 90.8877 12.0853 90.9411 12.144C90.9997 12.1973 91.0291 12.2773 91.0291 12.384V13.072L90.9411 12.976C91.0531 12.6667 91.2344 12.4347 91.4851 12.28C91.7411 12.12 92.0344 12.04 92.3651 12.04C92.6744 12.04 92.9304 12.096 93.1331 12.208C93.3411 12.32 93.4957 12.4907 93.5971 12.72C93.6984 12.944 93.7491 13.2293 93.7491 13.576V15.72C93.7491 15.8267 93.7197 15.9093 93.6611 15.968C93.6077 16.0267 93.5304 16.056 93.4291 16.056C93.3224 16.056 93.2397 16.0267 93.1811 15.968C93.1277 15.9093 93.1011 15.8267 93.1011 15.72V13.616C93.1011 13.2533 93.0291 12.9893 92.8851 12.824C92.7464 12.6533 92.5224 12.568 92.2131 12.568C91.8557 12.568 91.5704 12.68 91.3571 12.904C91.1491 13.1227 91.0451 13.416 91.0451 13.784V15.72C91.0451 15.944 90.9357 16.056 90.7171 16.056ZM98.5664 16.072C98.2624 16.072 98.0064 16.0187 97.7984 15.912C97.5958 15.8 97.4438 15.64 97.3424 15.432C97.2411 15.2187 97.1904 14.96 97.1904 14.656V12.616H96.6544C96.5638 12.616 96.4944 12.5947 96.4464 12.552C96.3984 12.504 96.3744 12.44 96.3744 12.36C96.3744 12.28 96.3984 12.2187 96.4464 12.176C96.4944 12.1333 96.5638 12.112 96.6544 12.112H97.1904V11.192C97.1904 11.0853 97.2198 11.0053 97.2784 10.952C97.3371 10.8933 97.4171 10.864 97.5184 10.864C97.6198 10.864 97.6971 10.8933 97.7504 10.952C97.8091 11.0053 97.8384 11.0853 97.8384 11.192V12.112H98.8464C98.9371 12.112 99.0064 12.1333 99.0544 12.176C99.1024 12.2187 99.1264 12.28 99.1264 12.36C99.1264 12.44 99.1024 12.504 99.0544 12.552C99.0064 12.5947 98.9371 12.616 98.8464 12.616H97.8384V14.592C97.8384 14.896 97.9024 15.128 98.0304 15.288C98.1584 15.4427 98.3664 15.52 98.6544 15.52C98.7558 15.52 98.8411 15.5093 98.9104 15.488C98.9851 15.4667 99.0464 15.456 99.0944 15.456C99.1424 15.4507 99.1824 15.4667 99.2144 15.504C99.2464 15.5413 99.2624 15.6053 99.2624 15.696C99.2624 15.76 99.2491 15.8187 99.2224 15.872C99.2011 15.9253 99.1611 15.9627 99.1024 15.984C99.0384 16.0053 98.9531 16.024 98.8464 16.04C98.7451 16.0613 98.6518 16.072 98.5664 16.072ZM100.17 16.056C100.064 16.056 99.9835 16.0267 99.9302 15.968C99.8769 15.9093 99.8502 15.8267 99.8502 15.72V10.632C99.8502 10.5253 99.8769 10.4453 99.9302 10.392C99.9835 10.3333 100.064 10.304 100.17 10.304C100.272 10.304 100.352 10.3333 100.41 10.392C100.469 10.4453 100.498 10.5253 100.498 10.632V12.976H100.394C100.506 12.6667 100.688 12.4347 100.938 12.28C101.194 12.12 101.488 12.04 101.818 12.04C102.128 12.04 102.384 12.096 102.586 12.208C102.794 12.32 102.949 12.4907 103.05 12.72C103.152 12.944 103.202 13.2293 103.202 13.576V15.72C103.202 15.8267 103.173 15.9093 103.114 15.968C103.061 16.0267 102.984 16.056 102.882 16.056C102.776 16.056 102.693 16.0267 102.634 15.968C102.581 15.9093 102.554 15.8267 102.554 15.72V13.616C102.554 13.2533 102.482 12.9893 102.338 12.824C102.2 12.6533 101.976 12.568 101.666 12.568C101.309 12.568 101.024 12.68 100.81 12.904C100.602 13.1227 100.498 13.416 100.498 13.784V15.72C100.498 15.944 100.389 16.056 100.17 16.056ZM106.149 16.072C105.738 16.072 105.384 15.992 105.085 15.832C104.792 15.6667 104.562 15.4347 104.397 15.136C104.237 14.8373 104.157 14.48 104.157 14.064C104.157 13.6587 104.237 13.3067 104.397 13.008C104.557 12.704 104.776 12.4667 105.053 12.296C105.336 12.1253 105.661 12.04 106.029 12.04C106.29 12.04 106.525 12.0853 106.733 12.176C106.941 12.2613 107.117 12.3867 107.261 12.552C107.41 12.7173 107.522 12.9173 107.597 13.152C107.677 13.3867 107.717 13.6507 107.717 13.944C107.717 14.0293 107.693 14.0933 107.645 14.136C107.597 14.1733 107.528 14.192 107.437 14.192H104.653V13.768H107.285L107.157 13.872C107.157 13.584 107.114 13.3413 107.029 13.144C106.944 12.9413 106.818 12.7867 106.653 12.68C106.493 12.5733 106.29 12.52 106.045 12.52C105.773 12.52 105.541 12.584 105.349 12.712C105.162 12.8347 105.021 13.008 104.925 13.232C104.829 13.4507 104.781 13.7067 104.781 14V14.048C104.781 14.5387 104.898 14.912 105.133 15.168C105.373 15.424 105.712 15.552 106.149 15.552C106.33 15.552 106.509 15.528 106.685 15.48C106.866 15.432 107.042 15.352 107.213 15.24C107.288 15.192 107.354 15.1707 107.413 15.176C107.477 15.176 107.528 15.1947 107.565 15.232C107.602 15.264 107.626 15.3067 107.637 15.36C107.653 15.408 107.648 15.4613 107.621 15.52C107.6 15.5787 107.554 15.6293 107.485 15.672C107.309 15.8 107.101 15.8987 106.861 15.968C106.621 16.0373 106.384 16.072 106.149 16.072Z" fill="currentColor"></path> <path d="M47.344 35.128C47.088 35.128 46.88 35.0693 46.72 34.952C46.5707 34.8347 46.48 34.68 46.448 34.488C46.416 34.2853 46.4533 34.0613 46.56 33.816L50.784 24.456C50.9227 24.1467 51.088 23.928 51.28 23.8C51.4827 23.6613 51.712 23.592 51.968 23.592C52.2133 23.592 52.432 23.6613 52.624 23.8C52.8267 23.928 52.9973 24.1467 53.136 24.456L57.376 33.816C57.4933 34.0613 57.536 34.2853 57.504 34.488C57.472 34.6907 57.3813 34.8507 57.232 34.968C57.0827 35.0747 56.8853 35.128 56.64 35.128C56.3413 35.128 56.1067 35.0587 55.936 34.92C55.776 34.7707 55.632 34.5467 55.504 34.248L54.464 31.832L55.328 32.392H48.576L49.44 31.832L48.416 34.248C48.2773 34.5573 48.1333 34.7813 47.984 34.92C47.8347 35.0587 47.6213 35.128 47.344 35.128ZM51.936 25.944L49.696 31.272L49.28 30.76H54.624L54.224 31.272L51.968 25.944H51.936ZM59.9383 38.008C59.6183 38.008 59.3729 37.9227 59.2023 37.752C59.0316 37.5813 58.9463 37.3307 58.9463 37V28.056C58.9463 27.7253 59.0316 27.4747 59.2023 27.304C59.3729 27.1333 59.6129 27.048 59.9223 27.048C60.2423 27.048 60.4876 27.1333 60.6583 27.304C60.8289 27.4747 60.9143 27.7253 60.9143 28.056V29.304L60.7383 28.824C60.8983 28.28 61.2236 27.8427 61.7143 27.512C62.2156 27.1813 62.7969 27.016 63.4583 27.016C64.1409 27.016 64.7383 27.1813 65.2503 27.512C65.7729 27.8427 66.1783 28.312 66.4663 28.92C66.7543 29.5173 66.8983 30.2373 66.8983 31.08C66.8983 31.912 66.7543 32.6373 66.4663 33.256C66.1783 33.864 65.7783 34.3333 65.2663 34.664C64.7543 34.9947 64.1516 35.16 63.4583 35.16C62.8076 35.16 62.2369 35 61.7463 34.68C61.2556 34.3493 60.9249 33.9227 60.7543 33.4H60.9463V37C60.9463 37.3307 60.8556 37.5813 60.6743 37.752C60.5036 37.9227 60.2583 38.008 59.9383 38.008ZM62.8983 33.64C63.2929 33.64 63.6396 33.544 63.9383 33.352C64.2369 33.16 64.4663 32.8773 64.6263 32.504C64.7969 32.12 64.8823 31.6453 64.8823 31.08C64.8823 30.2267 64.7009 29.592 64.3383 29.176C63.9756 28.7493 63.4956 28.536 62.8983 28.536C62.5036 28.536 62.1569 28.632 61.8583 28.824C61.5596 29.0053 61.3249 29.288 61.1543 29.672C60.9943 30.0453 60.9143 30.5147 60.9143 31.08C60.9143 31.9227 61.0956 32.5627 61.4583 33C61.8209 33.4267 62.3009 33.64 62.8983 33.64ZM69.532 38.008C69.212 38.008 68.9667 37.9227 68.796 37.752C68.6253 37.5813 68.54 37.3307 68.54 37V28.056C68.54 27.7253 68.6253 27.4747 68.796 27.304C68.9667 27.1333 69.2067 27.048 69.516 27.048C69.836 27.048 70.0813 27.1333 70.252 27.304C70.4227 27.4747 70.508 27.7253 70.508 28.056V29.304L70.332 28.824C70.492 28.28 70.8173 27.8427 71.308 27.512C71.8093 27.1813 72.3907 27.016 73.052 27.016C73.7347 27.016 74.332 27.1813 74.844 27.512C75.3667 27.8427 75.772 28.312 76.06 28.92C76.348 29.5173 76.492 30.2373 76.492 31.08C76.492 31.912 76.348 32.6373 76.06 33.256C75.772 33.864 75.372 34.3333 74.86 34.664C74.348 34.9947 73.7453 35.16 73.052 35.16C72.4013 35.16 71.8307 35 71.34 34.68C70.8493 34.3493 70.5187 33.9227 70.348 33.4H70.54V37C70.54 37.3307 70.4493 37.5813 70.268 37.752C70.0973 37.9227 69.852 38.008 69.532 38.008ZM72.492 33.64C72.8867 33.64 73.2333 33.544 73.532 33.352C73.8307 33.16 74.06 32.8773 74.22 32.504C74.3907 32.12 74.476 31.6453 74.476 31.08C74.476 30.2267 74.2947 29.592 73.932 29.176C73.5693 28.7493 73.0893 28.536 72.492 28.536C72.0973 28.536 71.7507 28.632 71.452 28.824C71.1533 29.0053 70.9187 29.288 70.748 29.672C70.588 30.0453 70.508 30.5147 70.508 31.08C70.508 31.9227 70.6893 32.5627 71.052 33C71.4147 33.4267 71.8947 33.64 72.492 33.64ZM86.5575 35.16C86.0882 35.16 85.6188 35.1227 85.1495 35.048C84.6802 34.984 84.2375 34.8827 83.8215 34.744C83.4055 34.5947 83.0322 34.4133 82.7015 34.2C82.5095 34.072 82.3762 33.9173 82.3015 33.736C82.2268 33.5547 82.2002 33.3787 82.2215 33.208C82.2535 33.0267 82.3228 32.872 82.4295 32.744C82.5468 32.6053 82.6908 32.52 82.8615 32.488C83.0322 32.456 83.2188 32.504 83.4215 32.632C83.8908 32.9093 84.3868 33.112 84.9095 33.24C85.4322 33.368 85.9815 33.432 86.5575 33.432C87.4002 33.432 88.0135 33.2933 88.3975 33.016C88.7815 32.728 88.9735 32.36 88.9735 31.912C88.9735 31.5387 88.8348 31.2453 88.5575 31.032C88.2908 30.8187 87.8268 30.6427 87.1655 30.504L85.4055 30.136C84.3922 29.9227 83.6348 29.5653 83.1335 29.064C82.6428 28.552 82.3975 27.88 82.3975 27.048C82.3975 26.5253 82.5042 26.0507 82.7175 25.624C82.9308 25.1973 83.2295 24.8293 83.6135 24.52C84.0082 24.2107 84.4722 23.976 85.0055 23.816C85.5495 23.6453 86.1468 23.56 86.7975 23.56C87.4375 23.56 88.0455 23.64 88.6215 23.8C89.1975 23.96 89.7148 24.1947 90.1735 24.504C90.3442 24.6213 90.4562 24.7653 90.5095 24.936C90.5735 25.1067 90.5895 25.2773 90.5575 25.448C90.5255 25.608 90.4508 25.7467 90.3335 25.864C90.2162 25.9813 90.0668 26.0507 89.8855 26.072C89.7148 26.0933 89.5175 26.04 89.2935 25.912C88.8988 25.688 88.4988 25.528 88.0935 25.432C87.6882 25.336 87.2508 25.288 86.7815 25.288C86.2908 25.288 85.8695 25.3573 85.5175 25.496C85.1655 25.6347 84.8935 25.832 84.7015 26.088C84.5202 26.3333 84.4295 26.6267 84.4295 26.968C84.4295 27.352 84.5575 27.6613 84.8135 27.896C85.0695 28.12 85.5068 28.296 86.1255 28.424L87.8695 28.792C88.9255 29.016 89.7095 29.368 90.2215 29.848C90.7442 30.328 91.0055 30.968 91.0055 31.768C91.0055 32.28 90.8988 32.744 90.6855 33.16C90.4828 33.576 90.1842 33.9333 89.7895 34.232C89.4055 34.5307 88.9415 34.76 88.3975 34.92C87.8535 35.08 87.2402 35.16 86.5575 35.16ZM96.0771 35.16C95.3838 35.16 94.8025 35.0427 94.3331 34.808C93.8745 34.5733 93.5331 34.232 93.3091 33.784C93.0851 33.3253 92.9731 32.76 92.9731 32.088V28.68H92.1411C91.8851 28.68 91.6878 28.616 91.5491 28.488C91.4105 28.3493 91.3411 28.1627 91.3411 27.928C91.3411 27.6827 91.4105 27.496 91.5491 27.368C91.6878 27.24 91.8851 27.176 92.1411 27.176H92.9731V25.72C92.9731 25.3893 93.0585 25.1387 93.2291 24.968C93.4105 24.7973 93.6611 24.712 93.9811 24.712C94.3011 24.712 94.5465 24.7973 94.7171 24.968C94.8878 25.1387 94.9731 25.3893 94.9731 25.72V27.176H96.6691C96.9251 27.176 97.1225 27.24 97.2611 27.368C97.3998 27.496 97.4691 27.6827 97.4691 27.928C97.4691 28.1627 97.3998 28.3493 97.2611 28.488C97.1225 28.616 96.9251 28.68 96.6691 28.68H94.9731V31.976C94.9731 32.488 95.0851 32.872 95.3091 33.128C95.5331 33.384 95.8958 33.512 96.3971 33.512C96.5785 33.512 96.7385 33.496 96.8771 33.464C97.0158 33.432 97.1385 33.4107 97.2451 33.4C97.3731 33.3893 97.4798 33.432 97.5651 33.528C97.6505 33.6133 97.6931 33.7947 97.6931 34.072C97.6931 34.2853 97.6558 34.4773 97.5811 34.648C97.5171 34.808 97.3945 34.92 97.2131 34.984C97.0745 35.0267 96.8931 35.064 96.6691 35.096C96.4451 35.1387 96.2478 35.16 96.0771 35.16ZM102.124 35.16C101.313 35.16 100.609 34.9947 100.012 34.664C99.4143 34.3333 98.9503 33.864 98.6196 33.256C98.289 32.6373 98.1236 31.912 98.1236 31.08C98.1236 30.4507 98.2143 29.8907 98.3956 29.4C98.5876 28.8987 98.8596 28.472 99.2116 28.12C99.5636 27.7573 99.985 27.4853 100.476 27.304C100.966 27.112 101.516 27.016 102.124 27.016C102.934 27.016 103.638 27.1813 104.236 27.512C104.833 27.8427 105.297 28.312 105.628 28.92C105.958 29.528 106.124 30.248 106.124 31.08C106.124 31.7093 106.028 32.2747 105.836 32.776C105.654 33.2773 105.388 33.7093 105.036 34.072C104.684 34.424 104.262 34.696 103.772 34.888C103.281 35.0693 102.732 35.16 102.124 35.16ZM102.124 33.64C102.518 33.64 102.865 33.544 103.164 33.352C103.462 33.16 103.692 32.8773 103.852 32.504C104.022 32.12 104.108 31.6453 104.108 31.08C104.108 30.2267 103.926 29.592 103.564 29.176C103.201 28.7493 102.721 28.536 102.124 28.536C101.729 28.536 101.382 28.632 101.084 28.824C100.785 29.0053 100.55 29.288 100.38 29.672C100.22 30.0453 100.14 30.5147 100.14 31.08C100.14 31.9227 100.321 32.5627 100.684 33C101.046 33.4267 101.526 33.64 102.124 33.64ZM108.798 35.128C108.468 35.128 108.212 35.0427 108.03 34.872C107.86 34.6907 107.774 34.4347 107.774 34.104V28.056C107.774 27.7253 107.86 27.4747 108.03 27.304C108.201 27.1333 108.441 27.048 108.75 27.048C109.06 27.048 109.3 27.1333 109.47 27.304C109.641 27.4747 109.726 27.7253 109.726 28.056V29.064H109.566C109.716 28.424 110.009 27.9387 110.446 27.608C110.884 27.2773 111.465 27.08 112.19 27.016C112.414 26.9947 112.59 27.0533 112.718 27.192C112.857 27.32 112.937 27.5227 112.958 27.8C112.98 28.0667 112.916 28.2853 112.766 28.456C112.628 28.616 112.414 28.712 112.126 28.744L111.774 28.776C111.124 28.84 110.633 29.0427 110.302 29.384C109.972 29.7147 109.806 30.184 109.806 30.792V34.104C109.806 34.4347 109.721 34.6907 109.55 34.872C109.38 35.0427 109.129 35.128 108.798 35.128ZM117.771 35.16C116.886 35.16 116.123 34.9947 115.483 34.664C114.843 34.3333 114.347 33.864 113.995 33.256C113.654 32.648 113.483 31.928 113.483 31.096C113.483 30.2853 113.648 29.576 113.979 28.968C114.32 28.36 114.784 27.8853 115.371 27.544C115.968 27.192 116.646 27.016 117.403 27.016C117.958 27.016 118.454 27.1067 118.891 27.288C119.339 27.4693 119.718 27.7307 120.027 28.072C120.347 28.4133 120.587 28.8293 120.747 29.32C120.918 29.8 121.003 30.344 121.003 30.952C121.003 31.144 120.934 31.2933 120.795 31.4C120.667 31.496 120.48 31.544 120.235 31.544H115.099V30.392H119.595L119.339 30.632C119.339 30.1413 119.264 29.7307 119.115 29.4C118.976 29.0693 118.768 28.8187 118.491 28.648C118.224 28.4667 117.888 28.376 117.483 28.376C117.035 28.376 116.651 28.4827 116.331 28.696C116.022 28.8987 115.782 29.192 115.611 29.576C115.451 29.9493 115.371 30.3973 115.371 30.92V31.032C115.371 31.9067 115.574 32.5627 115.979 33C116.395 33.4267 117.003 33.64 117.803 33.64C118.08 33.64 118.39 33.608 118.731 33.544C119.083 33.4693 119.414 33.3467 119.723 33.176C119.947 33.048 120.144 32.9947 120.315 33.016C120.486 33.0267 120.619 33.0853 120.715 33.192C120.822 33.2987 120.886 33.432 120.907 33.592C120.928 33.7413 120.896 33.896 120.811 34.056C120.736 34.216 120.603 34.3547 120.411 34.472C120.038 34.7067 119.606 34.8827 119.115 35C118.635 35.1067 118.187 35.16 117.771 35.16Z" fill="currentColor"></path> <rect x="0.5" y="0.5" width="133" height="46" rx="7.5" stroke="currentColor"></rect></svg>