<svg data-v-728576c6="" width="149" height="47" viewBox="0 0 149 47" fill="none" xmlns="http://www.w3.org/2000/svg" class="inline-block"><path d="M28.1925 23.0201L31.8888 19.3239L19.95 12.6139C19.1588 12.1864 18.4175 12.1264 17.7675 12.5939L28.1925 23.0201ZM32.5188 27.3476L36.3613 25.1864C37.1113 24.7664 37.5225 24.1714 37.5225 23.5114C37.5225 22.8526 37.1112 22.2564 36.3625 21.8364L32.8838 19.8826L28.9675 23.7976L32.5188 27.3476ZM17.125 13.5026C17.045 13.7489 17 14.0239 17 14.3251V32.7064C17 33.1826 17.105 33.5926 17.295 33.9189L27.4163 23.7964L17.125 13.5026ZM28.1925 24.5714L18.1275 34.6376C18.32 34.7114 18.5275 34.7501 18.7462 34.7501C19.1362 34.7501 19.5425 34.6351 19.9562 34.4051L31.525 27.9089L28.1925 24.5714Z" fill="currentColor"></path> <path d="M49.272 16.072C48.6693 16.072 48.16 15.9573 47.744 15.728C47.3333 15.4987 47.0213 15.168 46.808 14.736C46.5947 14.304 46.488 13.7867 46.488 13.184C46.488 12.736 46.5467 12.3333 46.664 11.976C46.7867 11.6187 46.9627 11.3173 47.192 11.072C47.4267 10.8213 47.7093 10.6293 48.04 10.496C48.376 10.3573 48.7547 10.288 49.176 10.288C49.512 10.288 49.8373 10.336 50.152 10.432C50.4667 10.5227 50.7467 10.6693 50.992 10.872C51.056 10.92 51.096 10.9733 51.112 11.032C51.128 11.0907 51.1253 11.1493 51.104 11.208C51.088 11.2667 51.0587 11.3173 51.016 11.36C50.9787 11.3973 50.928 11.4187 50.864 11.424C50.8053 11.4293 50.744 11.4107 50.68 11.368C50.4613 11.1973 50.2293 11.0747 49.984 11C49.7387 10.92 49.4667 10.88 49.168 10.88C48.7413 10.88 48.3787 10.9707 48.08 11.152C47.7867 11.3333 47.5627 11.5947 47.408 11.936C47.2587 12.2773 47.184 12.6933 47.184 13.184C47.184 13.9307 47.3573 14.5013 47.704 14.896C48.056 15.2907 48.584 15.488 49.288 15.488C49.544 15.488 49.7947 15.464 50.04 15.416C50.2853 15.3627 50.5173 15.2907 50.736 15.2L50.592 15.576V13.584H49.448C49.352 13.584 49.28 13.56 49.232 13.512C49.184 13.464 49.16 13.4 49.16 13.32C49.16 13.2347 49.184 13.1707 49.232 13.128C49.28 13.0853 49.352 13.064 49.448 13.064H50.88C50.9707 13.064 51.04 13.088 51.088 13.136C51.136 13.184 51.16 13.2533 51.16 13.344V15.432C51.16 15.512 51.1467 15.5787 51.12 15.632C51.0933 15.6853 51.048 15.7253 50.984 15.752C50.76 15.8427 50.4907 15.92 50.176 15.984C49.8667 16.0427 49.5653 16.072 49.272 16.072ZM52.8607 16C52.7434 16 52.6527 15.9707 52.5887 15.912C52.53 15.848 52.5007 15.7573 52.5007 15.64V10.72C52.5007 10.6027 52.53 10.5147 52.5887 10.456C52.6527 10.392 52.7434 10.36 52.8607 10.36H55.8367C55.9274 10.36 55.9967 10.384 56.0447 10.432C56.0927 10.48 56.1167 10.5467 56.1167 10.632C56.1167 10.7227 56.0927 10.792 56.0447 10.84C55.9967 10.888 55.9274 10.912 55.8367 10.912H53.1407V12.864H55.6687C55.7594 12.864 55.8287 12.888 55.8767 12.936C55.9247 12.9787 55.9487 13.0453 55.9487 13.136C55.9487 13.2267 55.9247 13.296 55.8767 13.344C55.8287 13.392 55.7594 13.416 55.6687 13.416H53.1407V15.448H55.8367C55.9274 15.448 55.9967 15.472 56.0447 15.52C56.0927 15.568 56.1167 15.6347 56.1167 15.72C56.1167 15.8107 56.0927 15.88 56.0447 15.928C55.9967 15.976 55.9274 16 55.8367 16H52.8607ZM58.7752 16.056C58.6739 16.056 58.5939 16.0267 58.5352 15.968C58.4765 15.904 58.4472 15.8187 58.4472 15.712V10.928H56.6472C56.5512 10.928 56.4765 10.9013 56.4232 10.848C56.3699 10.7947 56.3432 10.7253 56.3432 10.64C56.3432 10.5493 56.3699 10.48 56.4232 10.432C56.4765 10.384 56.5512 10.36 56.6472 10.36H60.9112C61.0072 10.36 61.0819 10.384 61.1352 10.432C61.1885 10.48 61.2152 10.5493 61.2152 10.64C61.2152 10.7307 61.1885 10.8027 61.1352 10.856C61.0819 10.904 61.0072 10.928 60.9112 10.928H59.1112V15.712C59.1112 15.8187 59.0819 15.904 59.0232 15.968C58.9699 16.0267 58.8872 16.056 58.7752 16.056ZM64.2662 16.056C64.1595 16.056 64.0769 16.0267 64.0182 15.968C63.9649 15.904 63.9382 15.8187 63.9382 15.712V10.648C63.9382 10.536 63.9649 10.4507 64.0182 10.392C64.0769 10.3333 64.1595 10.304 64.2662 10.304C64.3729 10.304 64.4529 10.3333 64.5062 10.392C64.5649 10.4507 64.5942 10.536 64.5942 10.648V15.712C64.5942 15.8187 64.5675 15.904 64.5142 15.968C64.4609 16.0267 64.3782 16.056 64.2662 16.056ZM67.7049 16.056C67.6035 16.056 67.5235 16.0267 67.4649 15.968C67.4062 15.904 67.3769 15.8187 67.3769 15.712V10.928H65.5769C65.4809 10.928 65.4062 10.9013 65.3529 10.848C65.2995 10.7947 65.2729 10.7253 65.2729 10.64C65.2729 10.5493 65.2995 10.48 65.3529 10.432C65.4062 10.384 65.4809 10.36 65.5769 10.36H69.8409C69.9369 10.36 70.0115 10.384 70.0649 10.432C70.1182 10.48 70.1449 10.5493 70.1449 10.64C70.1449 10.7307 70.1182 10.8027 70.0649 10.856C70.0115 10.904 69.9369 10.928 69.8409 10.928H68.0409V15.712C68.0409 15.8187 68.0115 15.904 67.9529 15.968C67.8995 16.0267 67.8169 16.056 67.7049 16.056ZM75.2359 16.072C74.7132 16.072 74.2572 15.9547 73.8679 15.72C73.4839 15.48 73.1852 15.144 72.9719 14.712C72.7639 14.28 72.6599 13.768 72.6599 13.176C72.6599 12.728 72.7185 12.328 72.8359 11.976C72.9585 11.6187 73.1319 11.3173 73.3559 11.072C73.5799 10.8213 73.8492 10.6293 74.1639 10.496C74.4839 10.3573 74.8412 10.288 75.2359 10.288C75.7692 10.288 76.2279 10.4053 76.6119 10.64C77.0012 10.8747 77.2999 11.208 77.5079 11.64C77.7212 12.0667 77.8279 12.576 77.8279 13.168C77.8279 13.616 77.7665 14.0187 77.6439 14.376C77.5212 14.7333 77.3479 15.0373 77.1239 15.288C76.8999 15.5387 76.6279 15.7333 76.3079 15.872C75.9932 16.0053 75.6359 16.072 75.2359 16.072ZM75.2359 15.488C75.6412 15.488 75.9825 15.3973 76.2599 15.216C76.5425 15.0347 76.7585 14.7707 76.9079 14.424C77.0572 14.0773 77.1319 13.6613 77.1319 13.176C77.1319 12.4453 76.9665 11.88 76.6359 11.48C76.3105 11.0747 75.8439 10.872 75.2359 10.872C74.8412 10.872 74.5025 10.9627 74.2199 11.144C73.9425 11.3253 73.7292 11.5893 73.5799 11.936C73.4305 12.2773 73.3559 12.6907 73.3559 13.176C73.3559 13.9013 73.5212 14.4693 73.8519 14.88C74.1825 15.2853 74.6439 15.488 75.2359 15.488ZM79.3127 16.056C79.2114 16.056 79.134 16.0293 79.0807 15.976C79.0274 15.9173 79.0007 15.8347 79.0007 15.728V10.64C79.0007 10.5333 79.0274 10.4507 79.0807 10.392C79.134 10.3333 79.2034 10.304 79.2887 10.304C79.374 10.304 79.4354 10.32 79.4727 10.352C79.5154 10.3787 79.5634 10.4293 79.6167 10.504L83.1047 15.152H82.9127V10.624C82.9127 10.5227 82.9394 10.4453 82.9927 10.392C83.046 10.3333 83.1234 10.304 83.2247 10.304C83.3207 10.304 83.3927 10.3333 83.4407 10.392C83.494 10.4453 83.5207 10.5227 83.5207 10.624V15.736C83.5207 15.8373 83.4967 15.9173 83.4487 15.976C83.406 16.0293 83.342 16.056 83.2567 16.056C83.1767 16.056 83.1127 16.04 83.0647 16.008C83.0167 15.976 82.966 15.9253 82.9127 15.856L79.4327 11.208H79.6167V15.728C79.6167 15.8347 79.59 15.9173 79.5367 15.976C79.4834 16.0293 79.4087 16.056 79.3127 16.056Z" fill="currentColor"></path> <path d="M52.656 35.16C51.408 35.16 50.352 34.9253 49.488 34.456C48.6347 33.9867 47.984 33.32 47.536 32.456C47.088 31.592 46.864 30.568 46.864 29.384C46.864 28.488 46.992 27.6827 47.248 26.968C47.5147 26.2533 47.8933 25.6453 48.384 25.144C48.8853 24.632 49.4933 24.2427 50.208 23.976C50.9227 23.6987 51.7333 23.56 52.64 23.56C53.2373 23.56 53.8347 23.6347 54.432 23.784C55.04 23.9227 55.6107 24.1627 56.144 24.504C56.3253 24.6213 56.4427 24.7653 56.496 24.936C56.56 25.1067 56.5707 25.2827 56.528 25.464C56.4853 25.6347 56.4053 25.784 56.288 25.912C56.1707 26.04 56.0213 26.12 55.84 26.152C55.6693 26.184 55.4773 26.1413 55.264 26.024C54.8587 25.7893 54.448 25.6187 54.032 25.512C53.616 25.4053 53.152 25.352 52.64 25.352C51.8507 25.352 51.184 25.512 50.64 25.832C50.096 26.1413 49.6853 26.5947 49.408 27.192C49.1413 27.7893 49.008 28.52 49.008 29.384C49.008 30.696 49.3227 31.6933 49.952 32.376C50.5813 33.0587 51.5147 33.4 52.752 33.4C53.1787 33.4 53.6107 33.3573 54.048 33.272C54.4853 33.1867 54.912 33.0693 55.328 32.92L54.928 33.832V30.424H53.168C52.9013 30.424 52.6933 30.3547 52.544 30.216C52.4053 30.0773 52.336 29.8907 52.336 29.656C52.336 29.4107 52.4053 29.224 52.544 29.096C52.6933 28.968 52.9013 28.904 53.168 28.904H55.808C56.0747 28.904 56.2773 28.9787 56.416 29.128C56.5653 29.2667 56.64 29.4693 56.64 29.736V33.624C56.64 33.8587 56.592 34.056 56.496 34.216C56.4107 34.376 56.2667 34.4933 56.064 34.568C55.5947 34.7387 55.056 34.8827 54.448 35C53.84 35.1067 53.2427 35.16 52.656 35.16ZM62.3893 35.16C61.5786 35.16 60.8746 34.9947 60.2773 34.664C59.6799 34.3333 59.2159 33.864 58.8853 33.256C58.5546 32.6373 58.3893 31.912 58.3893 31.08C58.3893 30.4507 58.4799 29.8907 58.6613 29.4C58.8533 28.8987 59.1253 28.472 59.4773 28.12C59.8293 27.7573 60.2506 27.4853 60.7413 27.304C61.2319 27.112 61.7813 27.016 62.3893 27.016C63.1999 27.016 63.9039 27.1813 64.5013 27.512C65.0986 27.8427 65.5626 28.312 65.8933 28.92C66.2239 29.528 66.3893 30.248 66.3893 31.08C66.3893 31.7093 66.2933 32.2747 66.1013 32.776C65.9199 33.2773 65.6533 33.7093 65.3013 34.072C64.9493 34.424 64.5279 34.696 64.0373 34.888C63.5466 35.0693 62.9973 35.16 62.3893 35.16ZM62.3893 33.64C62.7839 33.64 63.1306 33.544 63.4293 33.352C63.7279 33.16 63.9573 32.8773 64.1173 32.504C64.2879 32.12 64.3733 31.6453 64.3733 31.08C64.3733 30.2267 64.1919 29.592 63.8293 29.176C63.4666 28.7493 62.9866 28.536 62.3893 28.536C61.9946 28.536 61.6479 28.632 61.3493 28.824C61.0506 29.0053 60.8159 29.288 60.6453 29.672C60.4853 30.0453 60.4053 30.5147 60.4053 31.08C60.4053 31.9227 60.5866 32.5627 60.9493 33C61.3119 33.4267 61.7919 33.64 62.3893 33.64ZM71.608 35.16C70.7973 35.16 70.0933 34.9947 69.496 34.664C68.8987 34.3333 68.4347 33.864 68.104 33.256C67.7733 32.6373 67.608 31.912 67.608 31.08C67.608 30.4507 67.6987 29.8907 67.88 29.4C68.072 28.8987 68.344 28.472 68.696 28.12C69.048 27.7573 69.4693 27.4853 69.96 27.304C70.4507 27.112 71 27.016 71.608 27.016C72.4187 27.016 73.1227 27.1813 73.72 27.512C74.3173 27.8427 74.7813 28.312 75.112 28.92C75.4427 29.528 75.608 30.248 75.608 31.08C75.608 31.7093 75.512 32.2747 75.32 32.776C75.1387 33.2773 74.872 33.7093 74.52 34.072C74.168 34.424 73.7467 34.696 73.256 34.888C72.7653 35.0693 72.216 35.16 71.608 35.16ZM71.608 33.64C72.0027 33.64 72.3493 33.544 72.648 33.352C72.9467 33.16 73.176 32.8773 73.336 32.504C73.5067 32.12 73.592 31.6453 73.592 31.08C73.592 30.2267 73.4107 29.592 73.048 29.176C72.6853 28.7493 72.2053 28.536 71.608 28.536C71.2133 28.536 70.8667 28.632 70.568 28.824C70.2693 29.0053 70.0347 29.288 69.864 29.672C69.704 30.0453 69.624 30.5147 69.624 31.08C69.624 31.9227 69.8053 32.5627 70.168 33C70.5307 33.4267 71.0107 33.64 71.608 33.64ZM80.9068 38.04C80.3308 38.04 79.7708 37.9867 79.2268 37.88C78.6934 37.7733 78.2081 37.608 77.7708 37.384C77.5681 37.2773 77.4294 37.1493 77.3548 37C77.2908 36.8507 77.2694 36.696 77.2908 36.536C77.3228 36.3867 77.3868 36.2533 77.4828 36.136C77.5894 36.0187 77.7174 35.9387 77.8668 35.896C78.0161 35.8533 78.1708 35.8747 78.3307 35.96C78.8001 36.1947 79.2428 36.344 79.6588 36.408C80.0854 36.4827 80.4481 36.52 80.7468 36.52C81.4614 36.52 81.9948 36.344 82.3468 35.992C82.7094 35.6507 82.8908 35.1387 82.8908 34.456V33.016H83.0348C82.8748 33.56 82.5388 33.9973 82.0268 34.328C81.5254 34.648 80.9548 34.808 80.3148 34.808C79.6108 34.808 78.9974 34.648 78.4748 34.328C77.9521 33.9973 77.5468 33.5387 77.2588 32.952C76.9708 32.3653 76.8268 31.6827 76.8268 30.904C76.8268 30.3173 76.9068 29.7893 77.0668 29.32C77.2374 28.84 77.4721 28.4293 77.7708 28.088C78.0801 27.7467 78.4481 27.4853 78.8748 27.304C79.3121 27.112 79.7921 27.016 80.3148 27.016C80.9761 27.016 81.5521 27.1813 82.0428 27.512C82.5441 27.832 82.8694 28.2587 83.0188 28.792L82.8588 29.192V28.056C82.8588 27.7253 82.9441 27.4747 83.1148 27.304C83.2961 27.1333 83.5414 27.048 83.8508 27.048C84.1708 27.048 84.4161 27.1333 84.5868 27.304C84.7574 27.4747 84.8428 27.7253 84.8428 28.056V34.216C84.8428 35.4853 84.5068 36.44 83.8348 37.08C83.1628 37.72 82.1868 38.04 80.9068 38.04ZM80.8588 33.288C81.2748 33.288 81.6321 33.192 81.9308 33C82.2294 32.808 82.4588 32.536 82.6188 32.184C82.7894 31.8213 82.8748 31.3947 82.8748 30.904C82.8748 30.168 82.6934 29.592 82.3308 29.176C81.9681 28.7493 81.4774 28.536 80.8588 28.536C80.4428 28.536 80.0854 28.632 79.7868 28.824C79.4881 29.016 79.2534 29.288 79.0828 29.64C78.9228 29.992 78.8428 30.4133 78.8428 30.904C78.8428 31.64 79.0241 32.2213 79.3868 32.648C79.7494 33.0747 80.2401 33.288 80.8588 33.288ZM89.587 35.16C88.7017 35.16 88.035 34.9093 87.587 34.408C87.139 33.896 86.915 33.1493 86.915 32.168V24.6C86.915 24.2693 87.0003 24.0187 87.171 23.848C87.3417 23.6773 87.587 23.592 87.907 23.592C88.227 23.592 88.4723 23.6773 88.643 23.848C88.8243 24.0187 88.915 24.2693 88.915 24.6V32.072C88.915 32.5627 89.0163 32.9253 89.219 33.16C89.4323 33.3947 89.731 33.512 90.115 33.512C90.2003 33.512 90.2803 33.512 90.355 33.512C90.4297 33.5013 90.5043 33.4907 90.579 33.48C90.7283 33.4587 90.8297 33.5013 90.883 33.608C90.9363 33.704 90.963 33.9067 90.963 34.216C90.963 34.4827 90.9097 34.6907 90.803 34.84C90.6963 34.9893 90.5203 35.08 90.275 35.112C90.1683 35.1227 90.0563 35.1333 89.939 35.144C89.8217 35.1547 89.7043 35.16 89.587 35.16ZM95.8023 35.16C94.9169 35.16 94.1543 34.9947 93.5143 34.664C92.8743 34.3333 92.3783 33.864 92.0263 33.256C91.6849 32.648 91.5143 31.928 91.5143 31.096C91.5143 30.2853 91.6796 29.576 92.0103 28.968C92.3516 28.36 92.8156 27.8853 93.4023 27.544C93.9996 27.192 94.6769 27.016 95.4343 27.016C95.9889 27.016 96.4849 27.1067 96.9223 27.288C97.3703 27.4693 97.7489 27.7307 98.0583 28.072C98.3783 28.4133 98.6183 28.8293 98.7783 29.32C98.9489 29.8 99.0343 30.344 99.0343 30.952C99.0343 31.144 98.9649 31.2933 98.8263 31.4C98.6983 31.496 98.5116 31.544 98.2663 31.544H93.1303V30.392H97.6263L97.3703 30.632C97.3703 30.1413 97.2956 29.7307 97.1463 29.4C97.0076 29.0693 96.7996 28.8187 96.5223 28.648C96.2556 28.4667 95.9196 28.376 95.5143 28.376C95.0663 28.376 94.6823 28.4827 94.3623 28.696C94.0529 28.8987 93.8129 29.192 93.6423 29.576C93.4823 29.9493 93.4023 30.3973 93.4023 30.92V31.032C93.4023 31.9067 93.6049 32.5627 94.0103 33C94.4263 33.4267 95.0343 33.64 95.8343 33.64C96.1116 33.64 96.4209 33.608 96.7623 33.544C97.1143 33.4693 97.4449 33.3467 97.7543 33.176C97.9783 33.048 98.1756 32.9947 98.3463 33.016C98.5169 33.0267 98.6503 33.0853 98.7463 33.192C98.8529 33.2987 98.9169 33.432 98.9383 33.592C98.9596 33.7413 98.9276 33.896 98.8423 34.056C98.7676 34.216 98.6343 34.3547 98.4423 34.472C98.0689 34.7067 97.6369 34.8827 97.1463 35C96.6663 35.1067 96.2183 35.16 95.8023 35.16ZM106.178 35.128C105.847 35.128 105.591 35.0373 105.41 34.856C105.239 34.664 105.154 34.4027 105.154 34.072V24.76C105.154 24.4187 105.245 24.1627 105.426 23.992C105.607 23.8107 105.863 23.72 106.194 23.72H110.05C111.287 23.72 112.242 24.0293 112.914 24.648C113.586 25.2667 113.922 26.1307 113.922 27.24C113.922 28.3493 113.586 29.2187 112.914 29.848C112.242 30.4667 111.287 30.776 110.05 30.776H107.202V34.072C107.202 34.4027 107.117 34.664 106.946 34.856C106.775 35.0373 106.519 35.128 106.178 35.128ZM107.202 29.16H109.73C110.455 29.16 111.005 29 111.378 28.68C111.751 28.3493 111.938 27.8693 111.938 27.24C111.938 26.6107 111.751 26.136 111.378 25.816C111.005 25.496 110.455 25.336 109.73 25.336H107.202V29.16ZM118.071 35.16C117.186 35.16 116.519 34.9093 116.071 34.408C115.623 33.896 115.399 33.1493 115.399 32.168V24.6C115.399 24.2693 115.485 24.0187 115.655 23.848C115.826 23.6773 116.071 23.592 116.391 23.592C116.711 23.592 116.957 23.6773 117.127 23.848C117.309 24.0187 117.399 24.2693 117.399 24.6V32.072C117.399 32.5627 117.501 32.9253 117.703 33.16C117.917 33.3947 118.215 33.512 118.599 33.512C118.685 33.512 118.765 33.512 118.839 33.512C118.914 33.5013 118.989 33.4907 119.063 33.48C119.213 33.4587 119.314 33.5013 119.367 33.608C119.421 33.704 119.447 33.9067 119.447 34.216C119.447 34.4827 119.394 34.6907 119.287 34.84C119.181 34.9893 119.005 35.08 118.759 35.112C118.653 35.1227 118.541 35.1333 118.423 35.144C118.306 35.1547 118.189 35.16 118.071 35.16ZM123.085 35.16C122.519 35.16 122.013 35.0533 121.565 34.84C121.127 34.616 120.781 34.3173 120.525 33.944C120.279 33.5707 120.157 33.1493 120.157 32.68C120.157 32.104 120.306 31.6507 120.605 31.32C120.903 30.9787 121.389 30.7333 122.061 30.584C122.733 30.4347 123.634 30.36 124.765 30.36H125.565V31.512H124.781C124.119 31.512 123.591 31.544 123.197 31.608C122.802 31.672 122.519 31.784 122.349 31.944C122.189 32.0933 122.109 32.3067 122.109 32.584C122.109 32.936 122.231 33.224 122.477 33.448C122.722 33.672 123.063 33.784 123.501 33.784C123.853 33.784 124.162 33.704 124.429 33.544C124.706 33.3733 124.925 33.144 125.085 32.856C125.245 32.568 125.325 32.2373 125.325 31.864V30.024C125.325 29.4907 125.207 29.1067 124.973 28.872C124.738 28.6373 124.343 28.52 123.789 28.52C123.479 28.52 123.143 28.5573 122.781 28.632C122.429 28.7067 122.055 28.8347 121.661 29.016C121.458 29.112 121.277 29.1387 121.117 29.096C120.967 29.0533 120.85 28.968 120.765 28.84C120.679 28.7013 120.637 28.552 120.637 28.392C120.637 28.232 120.679 28.0773 120.765 27.928C120.85 27.768 120.994 27.6507 121.197 27.576C121.687 27.3733 122.157 27.2293 122.605 27.144C123.063 27.0587 123.479 27.016 123.853 27.016C124.621 27.016 125.25 27.1333 125.741 27.368C126.242 27.6027 126.615 27.96 126.861 28.44C127.106 28.9093 127.229 29.5173 127.229 30.264V34.104C127.229 34.4347 127.149 34.6907 126.989 34.872C126.829 35.0427 126.599 35.128 126.301 35.128C126.002 35.128 125.767 35.0427 125.597 34.872C125.437 34.6907 125.357 34.4347 125.357 34.104V33.336H125.485C125.41 33.7093 125.261 34.0347 125.037 34.312C124.823 34.5787 124.551 34.7867 124.221 34.936C123.89 35.0853 123.511 35.16 123.085 35.16ZM131.165 38.008C130.93 38.008 130.738 37.944 130.589 37.816C130.439 37.6987 130.349 37.5387 130.317 37.336C130.295 37.1333 130.333 36.92 130.429 36.696L131.517 34.28V35.112L128.605 28.376C128.509 28.1413 128.477 27.9227 128.509 27.72C128.541 27.5173 128.637 27.3573 128.797 27.24C128.967 27.112 129.197 27.048 129.485 27.048C129.73 27.048 129.927 27.1067 130.077 27.224C130.226 27.3307 130.359 27.5387 130.477 27.848L132.637 33.24H132.157L134.365 27.832C134.482 27.5333 134.621 27.3307 134.781 27.224C134.941 27.1067 135.154 27.048 135.421 27.048C135.655 27.048 135.842 27.112 135.981 27.24C136.119 27.3573 136.205 27.5173 136.237 27.72C136.269 27.912 136.231 28.1253 136.125 28.36L132.237 37.24C132.098 37.5387 131.949 37.7413 131.789 37.848C131.629 37.9547 131.421 38.008 131.165 38.008Z" fill="currentColor"></path> <rect x="0.5" y="0.5" width="148" height="46" rx="7.5" stroke="currentColor"></rect></svg>