<svg xmlns="http://www.w3.org/2000/svg" width="22" height="21" viewBox="0 0 22 21" fill="none"><path d="M8.76623 18.0239C8.68223 18.0239 8.5997 18.002 8.5268 17.9602C8.4539 17.9185 8.39319 17.8584 8.35067 17.786C6.74954 15.0582 2.48096 9.25006 2.43807 9.1917C2.3695 9.09848 2.33676 8.9837 2.34585 8.86833C2.35494 8.75296 2.40524 8.64472 2.48756 8.56339L3.80013 7.26628C3.8803 7.18706 3.98569 7.13846 4.09799 7.1289C4.21028 7.11935 4.32237 7.14946 4.41477 7.21399L8.66596 10.1823C11.5107 6.53455 14.1531 4.01435 15.8915 2.52724C17.8486 0.853303 19.0945 0.0996997 19.1467 0.068667C19.2216 0.0237335 19.3073 -1.39948e-06 19.3946 9.75746e-10H21.5181C21.6158 -6.21421e-06 21.7112 0.0296793 21.7916 0.0851206C21.8721 0.140562 21.9337 0.219141 21.9685 0.310439C22.0033 0.401737 22.0094 0.501442 21.9862 0.596336C21.963 0.691229 21.9115 0.776829 21.8386 0.841786C15.8082 6.21295 9.25047 17.6655 9.18493 17.7805C9.14309 17.854 9.08267 17.9151 9.00973 17.9578C8.93679 18.0006 8.85389 18.0233 8.76937 18.0239L8.76623 18.0239Z" fill="#FFB13D"></path><path d="M8.67374 20.0316C3.89104 20.0316 0 16.1406 0 11.3578C0 6.57508 3.89104 2.68409 8.67374 2.68409C9.6327 2.68303 10.5852 2.84131 11.4923 3.15247C11.6131 3.194 11.7126 3.28186 11.7687 3.3967C11.8248 3.51154 11.8329 3.64396 11.7914 3.76483C11.7499 3.88571 11.662 3.98513 11.5472 4.04123C11.4323 4.09733 11.2999 4.10552 11.179 4.06398C10.3726 3.78744 9.52583 3.64681 8.6733 3.64784C4.42197 3.64784 0.963315 7.10654 0.963315 11.3578C0.963315 15.6091 4.42197 19.0678 8.6733 19.0678C12.9246 19.0678 16.3833 15.6091 16.3833 11.3578C16.3834 10.8362 16.331 10.3158 16.2269 9.8047C16.2142 9.74268 16.2139 9.67878 16.2259 9.61663C16.2379 9.55449 16.2621 9.49532 16.297 9.44251C16.3318 9.3897 16.3768 9.34428 16.4292 9.30884C16.4817 9.2734 16.5406 9.24863 16.6026 9.23596C16.6646 9.22329 16.7285 9.22296 16.7907 9.23498C16.8528 9.24701 16.912 9.27115 16.9648 9.30605C17.0176 9.34094 17.063 9.38589 17.0985 9.43833C17.1339 9.49078 17.1587 9.54969 17.1713 9.6117C17.2884 10.1864 17.3474 10.7714 17.3473 11.3578C17.3475 16.1406 13.4564 20.0316 8.67374 20.0316Z" fill="#FFB13D"></path></svg>